<?xml version="1.0" encoding="utf-8"?>
<!-- Generator: Adobe Illustrator 26.0.3, SVG Export Plug-In . SVG Version: 6.00 Build 0)  -->
<svg version="1.0" id="katman_1" xmlns="http://www.w3.org/2000/svg" xmlns:xlink="http://www.w3.org/1999/xlink" x="0px" y="0px"
	 viewBox="0 0 600 450" style="enable-background:new 0 0 600 450;" xml:space="preserve">
<style type="text/css">
	.st0{clip-path:url(#SVGID_00000001623256738055122800000012212686677555755649_);fill:#F43397;}
</style>
<g>
	<g>
		<defs>
			<rect id="SVGID_1_" x="64" y="171.2" width="471" height="108.7"/>
		</defs>
		<clipPath id="SVGID_00000067942105866904366050000014180525724997867684_">
			<use xlink:href="#SVGID_1_"  style="overflow:visible;"/>
		</clipPath>
		<path style="clip-path:url(#SVGID_00000067942105866904366050000014180525724997867684_);fill:#F43397;" d="M133.5,208
			c7.9,0.1,14.5,2.8,20,8.2c5.5,5.4,8.2,11.8,8.2,19.5l-0.2,35.8c0,4.3-3.6,7.7-8.1,7.7c-4.4,0-8-3.5-7.9-7.8l0.2-35.8
			c0.1-3.2-1.2-6.3-3.6-8.5c-2.3-2.3-5.2-3.5-8.7-3.5c-3.4-0.1-6.7,1.3-9,3.7c-2.3,2.3-3.4,5.4-3.4,8.6l-0.2,35.3
			c0,4.3-3.7,7.8-8.2,7.8c-4.5,0-8.1-3.6-8.1-7.9l0.2-35.5c0.1-3.1-1.1-6.2-3.3-8.4c-2.4-2.5-5.4-3.7-9-3.8
			c-3.3-0.1-6.4,1.1-8.7,3.4c-2.4,2.3-3.6,5.1-3.6,8.4l-0.2,35.7c0,4.3-3.6,7.8-8.1,7.7c-4.4,0-8-3.5-8-7.8l0.2-35.6
			c0-6.7,2.5-13.1,7-18c5.9-6.3,13.1-9.5,21.5-9.4c8,0.1,14.9,2.9,20.4,8.5C118.7,210.7,125.5,208,133.5,208L133.5,208z
			 M234.7,247.7l-45.9-0.3c0.4,5.5,2.2,9.9,5.5,13.2c3.3,3.2,7.5,4.9,12.5,4.9c4,0,7.3-0.9,9.9-2.7c1.5-1.1,3.2-2.7,5-5
			c2.3-2.9,6.4-3.7,9.7-2l0.5,0.3c4.1,2.2,5,7.5,2,11c-0.5,0.6-1,1.2-1.6,1.7c-2.2,2.3-4.7,4.4-7.5,6c-2.7,1.6-5.6,2.7-8.6,3.4
			c-3.1,0.7-6.4,1.1-10.1,1.1c-10.3-0.1-18.6-3.3-24.9-9.8c-6.2-6.5-9.3-15.1-9.2-25.8c0.1-10.6,3.2-19.2,9.3-25.7
			c6.2-6.4,14.3-9.6,24.4-9.5c10.2,0.1,18.3,3.3,24.1,9.6c5.8,6.3,8.7,15,8.7,26C238.5,246.1,236.7,247.7,234.7,247.7L234.7,247.7z
			 M222.1,234.9c-2.2-8.3-7.5-12.4-16.1-12.5c-1.9,0-3.7,0.2-5.5,0.8c-1.7,0.5-3.3,1.4-4.7,2.5c-1.4,1.1-2.6,2.4-3.6,3.9
			c-1.1,1.6-1.8,3.3-2.3,5.2L222.1,234.9z M311.1,247.7l-45.9-0.3c0.4,5.5,2.2,9.9,5.5,13.2c3.3,3.2,7.5,4.9,12.5,4.9
			c4,0,7.3-0.9,9.9-2.7c1.6-1.1,3.2-2.7,5-5c2.3-2.9,6.4-3.7,9.7-2l0.5,0.3c4.1,2.2,5,7.5,2,11c-0.5,0.6-1,1.2-1.6,1.7
			c-2.2,2.3-4.7,4.4-7.5,6c-2.7,1.6-5.6,2.7-8.6,3.4c-3.1,0.7-6.4,1.1-10.1,1.1c-10.3-0.1-18.7-3.3-24.9-9.8
			c-6.2-6.5-9.3-15.1-9.2-25.8c0.1-10.6,3.2-19.2,9.3-25.7c6.2-6.4,14.3-9.6,24.4-9.5c10.2,0.1,18.3,3.3,24.1,9.6
			c5.8,6.3,8.7,15,8.7,26C314.9,246.1,313.2,247.7,311.1,247.7L311.1,247.7z M298.5,234.9c-2.2-8.3-7.5-12.4-16.1-12.5
			c-1.9,0-3.7,0.2-5.5,0.8c-3.4,1.1-6.3,3.3-8.3,6.3c-1.1,1.6-1.8,3.3-2.3,5.2L298.5,234.9z M399.5,171.2c4.5,0,8.1,3.6,8.1,8
			l-0.3,35.1c5.9-5,12.3-6.2,19.4-6.1c7,0,14.4,3.1,19.2,8.1c4.1,4.4,6,11.4,6,21l-0.2,34.1c0,4.4-3.7,7.9-8.2,7.9
			c-4.5,0-8.2-3.6-8.1-8l0.2-32.6c0-5.5-0.9-9.5-2.9-11.9c-2-2.5-5.2-3.7-9.7-3.7c-5.7,0-9.8,1.7-12.1,5c-2.3,3.5-3.5,9.4-3.6,17.9
			l-0.2,25.3c0,4.4-3.7,7.9-8.3,7.8c-4.5,0-8.1-3.6-8.1-8l0.7-91.8C391.3,174.6,395,171.1,399.5,171.2L399.5,171.2z M461.6,244
			c0.1-9.5,3.6-17.5,10.7-24.1c7-6.6,15.6-9.9,25.7-9.8c10.1,0.1,18.7,3.5,25.7,10.2c6.9,6.7,10.3,15,10.3,24.7
			c-0.1,9.9-3.6,18-10.7,24.7c-7.1,6.6-15.8,9.8-26,9.7c-10.2-0.1-18.7-3.5-25.5-10.3C464.9,262.5,461.5,254.1,461.6,244L461.6,244z
			 M477.6,244.4c0,6.6,1.7,11.7,5.3,15.6c3.7,3.9,8.6,5.9,14.7,5.9c6.1,0,11-1.8,14.7-5.6c3.7-3.8,5.6-8.9,5.6-15.2
			c0-6.4-1.7-11.5-5.4-15.3c-3.7-3.9-8.6-5.9-14.7-5.9c-6,0-10.8,1.9-14.6,5.7C479.6,233.3,477.7,238.3,477.6,244.4L477.6,244.4z
			 M372.6,243c4.9,3.6,7.4,8.3,7.5,14v0.2c0,7-2.7,12.7-7.9,16.6c-4.7,3.6-11.2,5.5-18.8,5.5c-8.1,0-16.6-2.3-24-6.4
			c-3.9-2.1-5.1-7-2.6-10.7c1.5-2.1,3.9-3.4,6.5-3.4c1.4,0,2.7,0.3,3.8,1c5.6,3.1,11.4,4.8,16.7,4.8c8.3,0,9.2-4,9.2-5.8v-0.2
			c0-3.5-4.8-5.2-12.6-7.5c-0.5-0.2-1.1-0.3-1.6-0.5c-5.2-1.4-10.6-3.2-14.8-6.2c-5-3.6-7.4-8.3-7.4-14.5v-0.2
			c0-12.6,10.6-21.4,25.6-21.4c6.3,0,13.3,1.5,19.6,4.4c1.9,0.9,3.5,2.5,4.2,4.5c0.7,2,0.4,4.2-0.6,6l0,0c-1.4,2.4-4,3.9-6.8,3.9
			c-1.1,0-2.3-0.2-3.3-0.7c-4.9-2.2-9.5-3.4-13.4-3.4c-4.9,0-8.1,2-8.1,5.1v0.2c0,3.6,6.3,5.6,13.1,7.7l1.3,0.4
			C363,238,368.3,239.9,372.6,243L372.6,243z M372.6,243"/>
	</g>
</g>
</svg>
